<svg width="20" height="20" viewBox="0 0 20 20" fill="none" xmlns="http://www.w3.org/2000/svg">
<path d="M18.185 0.0125C18.1642 0.0108333 18.1467 0 18.125 0H9.16669C7.78835 0 6.66669 1.12167 6.66669 2.5V3.33333C6.66669 3.79333 7.04002 4.16667 7.50002 4.16667C7.96002 4.16667 8.33335 3.79333 8.33335 3.33333V2.5C8.33335 2.04083 8.70752 1.66667 9.16669 1.66667H13.0492L12.795 1.75167C12.12 1.985 11.6667 2.62083 11.6667 3.33333V15.8333H9.16669C8.70752 15.8333 8.33335 15.4592 8.33335 15V13.3333C8.33335 12.8733 7.96002 12.5 7.50002 12.5C7.04002 12.5 6.66669 12.8733 6.66669 13.3333V15C6.66669 16.3783 7.78835 17.5 9.16669 17.5H11.6667V18.3333C11.6667 19.2525 12.4142 20 13.3334 20C13.5117 20 13.6809 19.9742 13.8642 19.9175L18.8709 18.2483C19.5467 18.015 20 17.3792 20 16.6667V1.66667C20 0.695 19.1625 -0.0666667 18.185 0.0125Z" fill="#C4C4C4"/>
<path d="M8.9225 7.74416L5.58917 4.41083C5.35083 4.17249 4.9925 4.10083 4.68083 4.22999C4.37 4.35916 4.16667 4.66333 4.16667 4.99999V7.49999H0.833333C0.373333 7.49999 0 7.87333 0 8.33333C0 8.79333 0.373333 9.16666 0.833333 9.16666H4.16667V11.6667C4.16667 12.0033 4.37 12.3075 4.68083 12.4367C4.9925 12.5658 5.35083 12.4942 5.58917 12.2558L8.9225 8.92249C9.24833 8.59666 9.24833 8.06999 8.9225 7.74416Z" fill="#C4C4C4"/>
</svg>
